<svg xmlns="http://www.w3.org/2000/svg" width="29.441" height="25.61" viewBox="0 0 29.441 25.61">
  <path id="_Compound_Path_" data-name="&lt;Compound Path&gt;" d="M26.678,79.079a1.262,1.262,0,0,1,1.263,1.261l-.044.349-3.22,11.749a2.522,2.522,0,0,1-2.437,1.872H5.7a2.522,2.522,0,0,1-2.437-1.872L.044,80.689A.961.961,0,0,1,0,80.34a1.262,1.262,0,0,1,1.263-1.261H7.356l5.569-8.314a1.183,1.183,0,0,1,1.045-.565,1.3,1.3,0,0,1,1.045.521l5.569,8.358Zm-15.412-.044h5.44l-2.735-4.476Zm5.229,7.659a2.524,2.524,0,1,0-2.524,2.524A2.527,2.527,0,0,0,16.495,86.695Z" transform="translate(0.75 -69.45)" fill="none" stroke="#111419" stroke-linejoin="round" stroke-width="1.5" fill-rule="evenodd"/>
</svg>
