<svg version="1.2" xmlns="http://www.w3.org/2000/svg" viewBox="0 0 233 234" width="233" height="234">
	<title>No-Image-Placeholder-svg</title>
	<defs>
		<linearGradient id="g1" x1="165.5" y1="65" x2="135.2" y2="162.6" gradientUnits="userSpaceOnUse">
			<stop offset="0" stop-color="#c2c2c2"/>
			<stop offset="1" stop-color="#9f9f9f"/>
		</linearGradient>
	</defs>
	<style>
		tspan { white-space:pre } 
		.s0 { fill: #5a8dee } 
		.s1 { fill: #9f9f9f } 
		.s2 { fill: url(#g1);stroke: #ffffff;stroke-linecap: round;stroke-linejoin: round;stroke-width: 5.4 } 
		.s3 { fill: #cccccc;stroke: #ffffff;stroke-linecap: round;stroke-linejoin: round;stroke-width: 2.3 } 
		.s4 { fill: #ffffff;stroke: #ffffff;stroke-linecap: round;stroke-linejoin: round;stroke-width: 2.3 } 
		.s5 { fill: #b3b3b3;stroke: #ffffff;stroke-linecap: round;stroke-linejoin: round;stroke-width: 2.3 } 
	</style>
	<g id="layer1">
		<path id="rect1017" class="s0" d="m-37-24h329.8v406h-329.8z" />
		<g id="g1015">
			<path id="rect1002" class="s1" d="m40.6 103.6l79.1-23.2l25.5 86.8l-79.2 23.2z" />
			<g id="g1000">
				<path id="rect961" class="s2" d="m102 40.9l103.5 30.3l-32.6 111.3l-103.4-30.3z" />
				<g id="g875">
					<path id="rect3338" class="s3" d="m110.5 54.4l81.4 23.8l-21.8 74.6l-81.4-23.8z" />
					<path id="rect3342" class="s4" d="m110.5 54.4l81.4 23.8l-10.2 34.8l-81.4-23.8z" />
					<path id="path3344" fill-rule="evenodd" class="s3" d="m105.3 90.7l9-7l12.2-4.6l1.7 3.9l4.2-5.8l1.5-0.1l3.5-4l21.1 38.5" />
					<path id="path3390-0" fill-rule="evenodd" class="s5" d="m141.6 80.7l3.4 4.9l2.3-2l4.2 15.2l-15-0.6l-12.7-1.6l-0.1-5.5l1.4-4l1.4-8l6.2 7.1l3.3 2.3q0.5-3.3 0.8-6.6q0.5-4.4 0.6-8.8z" />
					<path id="path3358" fill-rule="evenodd" class="s3" d="m123.7 101.5l17.2-8.4l3.5-0.7l6.1-6.2l5.4-2.3l21.1 38.5" />
					<path id="path3386" fill-rule="evenodd" class="s5" d="m160.5 92.3l2.1-1l2.6 9.6l4.7 8.7l5 1.4q-0.4 0.3-0.8 0.4c-1.1 0.4-2.2 0.5-3.4 0.4c-2.8 0-5.7-0.4-8.5 0c-1.5 0.3-3.1 0.8-4.5 1.5l-2.7-4.3l1.4-5l1.5-5l-2-15.1z" />
					<path id="path3370" fill-rule="evenodd" class="s4" d="m88.7 129c0.8-2 0.7-3.1 6.4-3.5c8.2-0.6 27.1 1.3 35.1-0.6c5.9-1.4-5.5-8.6 0.2-10.7c2.7-1 13 0.2 18.5-0.1c5.1-0.2 5.4-1.9 9.6-2.5c4-0.5 14.2 0.7 16.4-0.6c-1.1 1.6-10.3 0.6-13.4 1.5c-3.2 0.9-2.6 2.9-6.7 3.5c-4.3 0.5-13.4-0.3-15.1 1c-3.6 2.8 10.4 10.4 6.3 12.4c-5.5 2.8-22.1 1.5-28.1 2.6c-5 0.9-4 2.6-4.4 4.3" />
				</g>
			</g>
		</g>
	</g>
</svg>